<svg width="870" height="181" viewBox="0 0 870 181" fill="none" xmlns="http://www.w3.org/2000/svg">
<path d="M420.456 114.64C417.341 114.64 414.611 114.064 412.264 112.912C409.917 111.717 408.083 110.075 406.76 107.984C405.48 105.851 404.84 103.376 404.84 100.56V80.72C404.84 77.8613 405.48 75.3867 406.76 73.296C408.083 71.2053 409.917 69.584 412.264 68.432C414.611 67.2373 417.341 66.64 420.456 66.64C423.613 66.64 426.344 67.2373 428.648 68.432C430.995 69.584 432.808 71.2053 434.088 73.296C435.411 75.3867 436.072 77.8613 436.072 80.72H426.472C426.472 78.8427 425.939 77.4133 424.872 76.432C423.848 75.4507 422.376 74.96 420.456 74.96C418.536 74.96 417.043 75.4507 415.976 76.432C414.952 77.4133 414.44 78.8427 414.44 80.72V100.56C414.44 102.395 414.952 103.824 415.976 104.848C417.043 105.829 418.536 106.32 420.456 106.32C422.376 106.32 423.848 105.829 424.872 104.848C425.939 103.824 426.472 102.395 426.472 100.56H436.072C436.072 103.376 435.411 105.851 434.088 107.984C432.808 110.075 430.995 111.717 428.648 112.912C426.344 114.064 423.613 114.64 420.456 114.64ZM444.623 114V78.8H453.583V85.52H456.015L453.263 89.616C453.263 85.8187 454.138 82.96 455.887 81.04C457.636 79.12 460.196 78.16 463.567 78.16C467.45 78.16 470.458 79.3333 472.591 81.68C474.767 84.0267 475.855 87.3333 475.855 91.6V94.48H465.615V92.24C465.615 90.32 465.082 88.8267 464.015 87.76C462.991 86.6933 461.604 86.16 459.855 86.16C458.02 86.16 456.612 86.6933 455.631 87.76C454.692 88.8267 454.223 90.32 454.223 92.24V114H444.623ZM492.406 114.64C488.865 114.64 486.049 113.68 483.958 111.76C481.91 109.84 480.886 107.237 480.886 103.952C480.886 100.411 482.102 97.7013 484.534 95.824C487.009 93.904 490.55 92.944 495.158 92.944H502.454V90.32C502.454 88.9547 501.963 87.8667 500.982 87.056C500.043 86.2453 498.763 85.84 497.142 85.84C495.649 85.84 494.411 86.1813 493.43 86.864C492.449 87.5467 491.851 88.4853 491.638 89.68H482.358C482.742 86.1387 484.278 83.344 486.966 81.296C489.697 79.2053 493.195 78.16 497.462 78.16C501.942 78.16 505.483 79.2693 508.086 81.488C510.731 83.664 512.054 86.608 512.054 90.32V114H502.774V108.24H501.238L502.838 106C502.838 108.645 501.878 110.757 499.958 112.336C498.081 113.872 495.563 114.64 492.406 114.64ZM495.99 107.6C497.867 107.6 499.403 107.109 500.598 106.128C501.835 105.104 502.454 103.781 502.454 102.16V98.384H495.35C493.899 98.384 492.726 98.8107 491.83 99.664C490.934 100.475 490.486 101.563 490.486 102.928C490.486 104.379 490.977 105.531 491.958 106.384C492.939 107.195 494.283 107.6 495.99 107.6ZM528.605 114V91.6H519.261V82.96H528.605V78.16C528.605 74.8747 529.714 72.2507 531.933 70.288C534.194 68.2827 537.138 67.28 540.765 67.28H551.069V75.6H541.085C540.232 75.6 539.528 75.8773 538.973 76.432C538.461 76.944 538.205 77.6267 538.205 78.48V82.96H551.069V91.6H538.205V114H528.605ZM577.54 114C573.956 114 571.14 112.976 569.092 110.928C567.044 108.88 566.02 106.064 566.02 102.48V87.44H556.74V78.8H566.02V68.88H575.62V78.8H588.74V87.44H575.62V102.48C575.62 104.4 576.58 105.36 578.5 105.36H588.1V114H577.54ZM596.907 114V67.28H612.075C615.318 67.28 618.134 67.8987 620.523 69.136C622.955 70.3733 624.832 72.1227 626.155 74.384C627.52 76.6027 628.203 79.2267 628.203 82.256V98.96C628.203 101.947 627.52 104.571 626.155 106.832C624.832 109.093 622.955 110.864 620.523 112.144C618.134 113.381 615.318 114 612.075 114H596.907ZM606.507 105.04H612.075C614.038 105.04 615.616 104.485 616.811 103.376C618.006 102.267 618.603 100.795 618.603 98.96V82.256C618.603 80.464 618.006 79.0133 616.811 77.904C615.616 76.7947 614.038 76.24 612.075 76.24H606.507V105.04ZM645.906 114.64C642.365 114.64 639.549 113.68 637.458 111.76C635.41 109.84 634.386 107.237 634.386 103.952C634.386 100.411 635.602 97.7013 638.034 95.824C640.509 93.904 644.05 92.944 648.658 92.944H655.954V90.32C655.954 88.9547 655.463 87.8667 654.482 87.056C653.543 86.2453 652.263 85.84 650.642 85.84C649.149 85.84 647.911 86.1813 646.93 86.864C645.949 87.5467 645.351 88.4853 645.138 89.68H635.858C636.242 86.1387 637.778 83.344 640.466 81.296C643.197 79.2053 646.695 78.16 650.962 78.16C655.442 78.16 658.983 79.2693 661.586 81.488C664.231 83.664 665.554 86.608 665.554 90.32V114H656.274V108.24H654.738L656.338 106C656.338 108.645 655.378 110.757 653.458 112.336C651.581 113.872 649.063 114.64 645.906 114.64ZM649.49 107.6C651.367 107.6 652.903 107.109 654.098 106.128C655.335 105.104 655.954 103.781 655.954 102.16V98.384H648.85C647.399 98.384 646.226 98.8107 645.33 99.664C644.434 100.475 643.986 101.563 643.986 102.928C643.986 104.379 644.477 105.531 645.458 106.384C646.439 107.195 647.783 107.6 649.49 107.6ZM688.889 114.64C685.774 114.64 683.044 114.064 680.697 112.912C678.393 111.717 676.601 110.075 675.321 107.984C674.084 105.851 673.465 103.376 673.465 100.56V92.24C673.465 89.424 674.084 86.9707 675.321 84.88C676.601 82.7467 678.393 81.104 680.697 79.952C683.044 78.7573 685.774 78.16 688.889 78.16C692.004 78.16 694.692 78.7573 696.953 79.952C699.257 81.104 701.028 82.7467 702.265 84.88C703.545 86.9707 704.185 89.424 704.185 92.24V98.64H682.617V100.56C682.617 102.779 683.15 104.464 684.217 105.616C685.284 106.725 686.884 107.28 689.017 107.28C690.51 107.28 691.705 107.024 692.601 106.512C693.54 106 694.158 105.296 694.457 104.4H703.865C703.097 107.472 701.348 109.947 698.617 111.824C695.929 113.701 692.686 114.64 688.889 114.64ZM695.033 93.712V92.112C695.033 89.936 694.521 88.272 693.497 87.12C692.516 85.968 690.98 85.392 688.889 85.392C686.798 85.392 685.22 85.9893 684.153 87.184C683.129 88.3787 682.617 90.064 682.617 92.24V93.2L695.673 93.072L695.033 93.712ZM710.688 114V78.8H718.24V83.92H719.776L718.56 84.816C718.56 82.8107 719.136 81.2107 720.288 80.016C721.44 78.7787 722.869 78.16 724.576 78.16C726.411 78.16 727.84 78.9493 728.864 80.528C729.888 82.1067 730.4 84.1973 730.4 86.8L729.248 83.92H731.04L730.464 84.816C730.464 82.8107 731.019 81.2107 732.128 80.016C733.237 78.7787 734.731 78.16 736.608 78.16C738.741 78.16 740.469 78.9707 741.792 80.592C743.115 82.1707 743.776 84.3467 743.776 87.12V114H735.52V87.76C735.52 86.7787 735.307 86.032 734.88 85.52C734.453 84.9653 733.835 84.688 733.024 84.688C732.213 84.688 731.595 84.9653 731.168 85.52C730.741 86.032 730.528 86.7787 730.528 87.76V114H723.936V87.76C723.936 86.7787 723.723 86.032 723.296 85.52C722.869 84.9653 722.251 84.688 721.44 84.688C720.629 84.688 720.011 84.9653 719.584 85.52C719.157 86.032 718.944 86.7787 718.944 87.76V114H710.688ZM765.575 114.64C762.46 114.64 759.751 114.064 757.447 112.912C755.143 111.717 753.351 110.075 752.071 107.984C750.834 105.851 750.215 103.376 750.215 100.56V92.24C750.215 89.424 750.834 86.9707 752.071 84.88C753.351 82.7467 755.143 81.104 757.447 79.952C759.751 78.7573 762.46 78.16 765.575 78.16C768.732 78.16 771.442 78.7573 773.703 79.952C776.007 81.104 777.778 82.7467 779.015 84.88C780.295 86.9707 780.935 89.424 780.935 92.24V100.56C780.935 103.376 780.295 105.851 779.015 107.984C777.778 110.075 776.007 111.717 773.703 112.912C771.442 114.064 768.732 114.64 765.575 114.64ZM765.575 106.32C767.452 106.32 768.882 105.829 769.863 104.848C770.844 103.824 771.335 102.395 771.335 100.56V92.24C771.335 90.3627 770.844 88.9333 769.863 87.952C768.882 86.9707 767.452 86.48 765.575 86.48C763.74 86.48 762.311 86.9707 761.287 87.952C760.306 88.9333 759.815 90.3627 759.815 92.24V100.56C759.815 102.395 760.306 103.824 761.287 104.848C762.311 105.829 763.74 106.32 765.575 106.32ZM788.974 114V78.8H798.254V85.52H801.07L798.254 87.76C798.254 84.7733 799.107 82.4267 800.814 80.72C802.521 79.0133 804.825 78.16 807.726 78.16C811.139 78.16 813.87 79.3547 815.918 81.744C818.009 84.1333 819.054 87.312 819.054 91.28V114H809.454V92.24C809.454 90.4053 808.963 88.9973 807.982 88.016C807.043 86.992 805.699 86.48 803.95 86.48C802.243 86.48 800.921 86.992 799.982 88.016C799.043 88.9973 798.574 90.4053 798.574 92.24V114H788.974Z" fill="#EBEBEB"/>
<path d="M81.072 36V48.672H53.936L61.616 41.12V139.936L53.936 132.256H81.072V144.928H46V36H81.072Z" fill="#EBEBEB"/>
<path d="M320.847 36H355.919V144.928H320.847V132.256H347.983L340.303 139.936V41.12L347.983 48.672H320.847V36Z" fill="#EBEBEB"/>
<rect x="106" y="64" width="16" height="16" rx="2" fill="#5865F2"/>
<rect x="106" y="100" width="16" height="16" rx="2" fill="#5865F2"/>
<rect x="142" y="64" width="16" height="16" rx="2" fill="#5865F2"/>
<rect x="142" y="100" width="16" height="16" rx="2" fill="#5865F2"/>
<circle cx="202" cy="109" r="7" fill="#EBEBEB"/>
<circle cx="202" cy="71" r="7" fill="#EBEBEB"/>
<path d="M279.333 89.96H287.667V117H279.333V106.6H262.667V117H254.333V89.96H262.667V81.6396H279.333V89.96ZM262.667 81.6396H246V65H262.667V81.6396ZM296 81.6396H279.333V65H296V81.6396Z" fill="#268245"/>
</svg>
